<svg clip-rule="evenodd" fill-rule="evenodd" stroke-linejoin="round" stroke-miterlimit="2" viewBox="0 0 560 400" xmlns="http://www.w3.org/2000/svg"><g fill-rule="nonzero" transform="matrix(2.50932 0 0 2.50932 100 137.267)"><g fill="#0079c1"><path d="m15.299 19.444c0 2.611-1.195 4.056-4.341 4.056h-2.687v-7.979c.34-.035 1.479-.056 1.819-.056h.917c3.208 0 4.292 1.361 4.292 3.979zm6.389 10.417c0-4.118-3.362-5.611-7.438-5.701v-.153c3.472-.285 6.313-1.736 6.313-5.236 0-3.896-3.223-4.625-6.827-4.625-4.333 0-9.417.118-13.736 0v1.34c.91-.062 3.132.063 3.132 1.208v16.584c0 1.111-2.278 1.264-3.132 1.264v1.305c4.167-.111 9.132 0 13.333 0 4.417 0 8.355-1.493 8.355-5.986zm-5.556-.423c0 3.409-1.188 5.027-5.313 5.027h-2.569v-9.555h2.736c3.771 0 5.167 1.27 5.167 4.5z"/><path d="m49.639 35.813c-1.945 0-3.882 0-5.82.034v-1.333c.882 0 3.327-.049 3.327-1.236v-15.403h-.07l-8.763 18.236h-1.056l-8.549-18.271h-.062v15.438c0 1.215 2.423 1.236 3.34 1.236l.042 1.333c-2.424-.076-5.729-.132-8.111 0v-1.333c.923 0 3.007-.076 3.007-1.236v-16.611c0-1.132-2.153-1.229-3.007-1.229v-1.341c2.777.118 5.722.118 8.479 0l7.305 15.41 7.48-15.354c2.652.118 5.652.083 8.333-.035v1.34c-.882 0-3.195.063-3.195 1.23v16.59c0 1.187 2.285 1.236 3.195 1.236v1.333c-1.965-.055-3.938-.034-5.875-.034z"/><path d="m75.917 24.958c0 4.167-.41 9.924-6.563 9.924s-6.597-5.785-6.597-9.924.444-9.882 6.597-9.882 6.563 5.757 6.563 9.882zm5.75 0c0-7.187-4.389-11.222-12.313-11.222-7.923 0-12.354 4-12.354 11.222 0 7.223 4.396 11.25 12.354 11.25 7.959 0 12.313-4.02 12.313-11.25z"/></g><path d="m118.465 0c-4.944 0-9.778 1.466-13.889 4.213s-7.316 6.652-9.208 11.22-2.387 9.595-1.422 14.444c.964 4.85 3.345 9.304 6.842 12.801 3.496 3.496 7.95 5.877 12.8 6.842 4.85.964 9.876.469 14.444-1.423s8.473-5.096 11.22-9.208c2.747-4.111 4.213-8.944 4.213-13.889 0-6.63-2.634-12.989-7.322-17.678-4.689-4.688-11.047-7.322-17.678-7.322z" fill="#ed1c24"/><path d="m117.701 17.361-4.34-5.66c-.09-.118-.207-.215-.34-.281-.134-.066-.281-.101-.431-.101-.145 0-.288.032-.418.096s-.244.157-.332.273l-5.166 6.506v10.209l5.152-6.59c.094-.119.213-.215.349-.282.136-.066.285-.1.436-.1.153-.001.304.034.441.101.138.068.258.166.351.287l4.361 5.702c.082.107.187.195.307.257s.252.098.387.104c.136-.005.268-.04.388-.102.12-.063.225-.151.307-.259l4.361-5.702c.094-.12.214-.217.351-.285.137-.067.288-.102.441-.103.151-.002.301.032.437.098.136.067.255.164.347.284l5.139 6.583v-10.208l-5.167-6.507c-.089-.116-.204-.209-.335-.273s-.276-.096-.421-.095c-.149.001-.296.036-.43.102-.133.066-.25.162-.341.279l-4.306 5.667c-.089.118-.205.213-.338.278-.132.065-.278.098-.426.097-.147 0-.293-.034-.425-.099s-.248-.16-.339-.276zm12.563 18.521h-23.611v-7.486h23.611z" fill="#fff"/></g></svg>